<?xml version="1.0" encoding="UTF-8" standalone="no"?>
<!DOCTYPE svg PUBLIC "-//W3C//DTD SVG 1.1//EN"
 "http://www.w3.org/Graphics/SVG/1.1/DTD/svg11.dtd">
<!-- Generated by graphviz version 5.0.0 (20220707.1540)
 -->
<!-- Title: UmlClassDiagram Pages: 1 -->
<svg width="522pt" height="1032pt"
 viewBox="0.00 0.00 521.84 1032.00" xmlns="http://www.w3.org/2000/svg" xmlns:xlink="http://www.w3.org/1999/xlink">
<g id="graph0" class="graph" transform="scale(1 1) rotate(0) translate(4 1028)">
<title>UmlClassDiagram</title>
<polygon fill="white" stroke="transparent" points="-4,4 -4,-1028 517.84,-1028 517.84,4 -4,4"/>
<!-- 1 -->
<g id="node1" class="node">
<title>1</title>
<polygon fill="#f2f2f2" stroke="black" points="38,-464.7 38,-598.3 235.56,-598.3 235.56,-464.7 38,-464.7"/>
<text text-anchor="middle" x="136.78" y="-581.7" font-family="Times,serif" font-size="14.00">&lt;&lt;Struct&gt;&gt;</text>
<text text-anchor="middle" x="136.78" y="-564.9" font-family="Times,serif" font-size="14.00">ClientRecord</text>
<text text-anchor="middle" x="136.78" y="-548.1" font-family="Times,serif" font-size="14.00">ITokenManagementContract.sol</text>
<polyline fill="none" stroke="black" points="38,-539.9 235.56,-539.9 "/>
<text text-anchor="start" x="46" y="-523.3" font-family="Times,serif" font-size="14.00">tokensPurchasedCount: uint</text>
<text text-anchor="start" x="46" y="-506.5" font-family="Times,serif" font-size="14.00">tokensAvailables: uint</text>
<text text-anchor="start" x="46" y="-489.7" font-family="Times,serif" font-size="14.00">clientType: ClientType</text>
<text text-anchor="start" x="46" y="-472.9" font-family="Times,serif" font-size="14.00">isExist: bool</text>
</g>
<!-- 2 -->
<g id="node2" class="node">
<title>2</title>
<polygon fill="#f2f2f2" stroke="black" points="0,-635.3 0,-752.1 197.56,-752.1 197.56,-635.3 0,-635.3"/>
<text text-anchor="middle" x="98.78" y="-735.5" font-family="Times,serif" font-size="14.00">&lt;&lt;Enum&gt;&gt;</text>
<text text-anchor="middle" x="98.78" y="-718.7" font-family="Times,serif" font-size="14.00">ClientType</text>
<text text-anchor="middle" x="98.78" y="-701.9" font-family="Times,serif" font-size="14.00">ITokenManagementContract.sol</text>
<polyline fill="none" stroke="black" points="0,-693.7 197.56,-693.7 "/>
<text text-anchor="start" x="8" y="-677.1" font-family="Times,serif" font-size="14.00">CA: 0</text>
<text text-anchor="start" x="8" y="-660.3" font-family="Times,serif" font-size="14.00">STUDENT: 1</text>
<text text-anchor="start" x="8" y="-643.5" font-family="Times,serif" font-size="14.00">ADMIN: 2</text>
</g>
<!-- 1&#45;&gt;2 -->
<g id="edge1" class="edge">
<title>1&#45;&gt;2</title>
<path fill="none" stroke="black" stroke-dasharray="5,2" d="M121.1,-598.58C119.01,-607.41 116.86,-616.48 114.76,-625.33"/>
<polygon fill="black" stroke="black" points="111.32,-624.67 112.41,-635.21 118.13,-626.29 111.32,-624.67"/>
</g>
<!-- 0 -->
<g id="node3" class="node">
<title>0</title>
<polygon fill="#f2f2f2" stroke="black" points="9.97,-789.1 9.97,-1023.5 441.59,-1023.5 441.59,-789.1 9.97,-789.1"/>
<text text-anchor="middle" x="225.78" y="-1006.9" font-family="Times,serif" font-size="14.00">&lt;&lt;Interface&gt;&gt;</text>
<text text-anchor="middle" x="225.78" y="-990.1" font-family="Times,serif" font-size="14.00">ITokenManagementContract</text>
<text text-anchor="middle" x="225.78" y="-973.3" font-family="Times,serif" font-size="14.00">ITokenManagementContract.sol</text>
<polyline fill="none" stroke="black" points="9.97,-965.1 441.59,-965.1 "/>
<text text-anchor="start" x="17.97" y="-948.5" font-family="Times,serif" font-size="14.00">External:</text>
<text text-anchor="start" x="17.97" y="-931.7" font-family="Times,serif" font-size="14.00"> &#160;&#160;&#160;&#160;sendInitialTokenFundsTo(_account: address, _clientType: ClientType)</text>
<text text-anchor="start" x="17.97" y="-914.9" font-family="Times,serif" font-size="14.00"> &#160;&#160;&#160;&#160;getTokenPriceInWei(_tokenCount: uint): uint</text>
<text text-anchor="start" x="17.97" y="-898.1" font-family="Times,serif" font-size="14.00"> &#160;&#160;&#160;&#160;buyTokens(_tokenCount: uint)</text>
<text text-anchor="start" x="17.97" y="-881.3" font-family="Times,serif" font-size="14.00"> &#160;&#160;&#160;&#160;balanceOf(): uint</text>
<text text-anchor="start" x="17.97" y="-864.5" font-family="Times,serif" font-size="14.00"> &#160;&#160;&#160;&#160;getMyTokens(): uint</text>
<text text-anchor="start" x="17.97" y="-847.7" font-family="Times,serif" font-size="14.00"> &#160;&#160;&#160;&#160;getTokens(_client: address): uint</text>
<text text-anchor="start" x="17.97" y="-830.9" font-family="Times,serif" font-size="14.00"> &#160;&#160;&#160;&#160;generateTokens(_tokenCount: uint)</text>
<text text-anchor="start" x="17.97" y="-814.1" font-family="Times,serif" font-size="14.00"> &#160;&#160;&#160;&#160;transfer(_client: address, _recipient: address, _amount: uint256): bool</text>
<text text-anchor="start" x="17.97" y="-797.3" font-family="Times,serif" font-size="14.00"> &#160;&#160;&#160;&#160;addTokens(_recipient: address, _amount: uint256): bool</text>
</g>
<!-- 1&#45;&gt;0 -->
<g id="edge3" class="edge">
<title>1&#45;&gt;0</title>
<path fill="none" stroke="black" d="M189.23,-598.56C196.23,-610.11 202.46,-622.4 206.78,-634.8 222.38,-679.59 228.64,-731.02 230.5,-776.93"/>
<polygon fill="black" stroke="black" points="230.51,-777.1 234.7,-782.97 230.9,-789.09 226.7,-783.23 230.51,-777.1"/>
</g>
<!-- 2&#45;&gt;0 -->
<g id="edge2" class="edge">
<title>2&#45;&gt;0</title>
<path fill="none" stroke="black" d="M127.39,-752.25C132.11,-760.48 137.19,-769.2 142.48,-778.14"/>
<polygon fill="black" stroke="black" points="142.63,-778.4 149.14,-781.52 148.76,-788.72 142.26,-785.6 142.63,-778.4"/>
</g>
<!-- 0&#45;&gt;2 -->
<g id="edge4" class="edge">
<title>0&#45;&gt;2</title>
<path fill="none" stroke="black" stroke-dasharray="5,2" d="M162.19,-788.72C156.36,-779.16 150.54,-769.72 144.91,-760.72"/>
<polygon fill="black" stroke="black" points="147.86,-758.85 139.57,-752.25 141.94,-762.58 147.86,-758.85"/>
</g>
<!-- 3 -->
<g id="node4" class="node">
<title>3</title>
<polygon fill="#f2f2f2" stroke="black" points="13.71,-0.5 13.71,-427.7 513.84,-427.7 513.84,-0.5 13.71,-0.5"/>
<text text-anchor="middle" x="263.78" y="-411.1" font-family="Times,serif" font-size="14.00">TokenManagementContract</text>
<text text-anchor="middle" x="263.78" y="-394.3" font-family="Times,serif" font-size="14.00">TokenManagementContract.sol</text>
<polyline fill="none" stroke="black" points="13.71,-386.1 513.84,-386.1 "/>
<text text-anchor="start" x="21.71" y="-369.5" font-family="Times,serif" font-size="14.00">Private:</text>
<text text-anchor="start" x="21.71" y="-352.7" font-family="Times,serif" font-size="14.00"> &#160;&#160;token: ERC20Basic</text>
<text text-anchor="start" x="21.71" y="-335.9" font-family="Times,serif" font-size="14.00"> &#160;&#160;accountsAlreadyProvidedWithInitialFunds: mapping(address=&gt;bool)</text>
<text text-anchor="start" x="21.71" y="-319.1" font-family="Times,serif" font-size="14.00">Public:</text>
<text text-anchor="start" x="21.71" y="-302.3" font-family="Times,serif" font-size="14.00"> &#160;&#160;DEFAULT_ADMIN_TOKENS: uint</text>
<text text-anchor="start" x="21.71" y="-285.5" font-family="Times,serif" font-size="14.00"> &#160;&#160;DEFAULT_CA_TOKENS: uint</text>
<text text-anchor="start" x="21.71" y="-268.7" font-family="Times,serif" font-size="14.00"> &#160;&#160;DEFAULT_STUDENTS_TOKENS: uint</text>
<text text-anchor="start" x="21.71" y="-251.9" font-family="Times,serif" font-size="14.00"> &#160;&#160;clients: mapping(address=&gt;ClientRecord)</text>
<polyline fill="none" stroke="black" points="13.71,-243.7 513.84,-243.7 "/>
<text text-anchor="start" x="21.71" y="-227.1" font-family="Times,serif" font-size="14.00">External:</text>
<text text-anchor="start" x="21.71" y="-210.3" font-family="Times,serif" font-size="14.00"> &#160;&#160;&#160;generateTokens(_tokenCount: uint)</text>
<text text-anchor="start" x="21.71" y="-193.5" font-family="Times,serif" font-size="14.00">Public:</text>
<text text-anchor="start" x="21.71" y="-176.7" font-family="Times,serif" font-size="14.00"> &#160;&#160;&#160;&lt;&lt;payable&gt;&gt; buyTokens(_tokenCount: uint)</text>
<text text-anchor="start" x="21.71" y="-159.9" font-family="Times,serif" font-size="14.00"> &#160;&#160;&#160;&lt;&lt;modifier&gt;&gt; accountHasNotAlreadyProvidedWithInitialFunds(_account: address)</text>
<text text-anchor="start" x="21.71" y="-143.1" font-family="Times,serif" font-size="14.00"> &#160;&#160;&#160;&lt;&lt;modifier&gt;&gt; ClientMustExist(_address: address)</text>
<text text-anchor="start" x="21.71" y="-126.3" font-family="Times,serif" font-size="14.00"> &#160;&#160;&#160;constructor()</text>
<text text-anchor="start" x="21.71" y="-109.5" font-family="Times,serif" font-size="14.00"> &#160;&#160;&#160;sendInitialTokenFundsTo(_account: address, _clientType: ClientType)</text>
<text text-anchor="start" x="21.71" y="-92.7" font-family="Times,serif" font-size="14.00"> &#160;&#160;&#160;getTokenPriceInWei(_tokenCount: uint): uint</text>
<text text-anchor="start" x="21.71" y="-75.9" font-family="Times,serif" font-size="14.00"> &#160;&#160;&#160;balanceOf(): uint</text>
<text text-anchor="start" x="21.71" y="-59.1" font-family="Times,serif" font-size="14.00"> &#160;&#160;&#160;getMyTokens(): uint</text>
<text text-anchor="start" x="21.71" y="-42.3" font-family="Times,serif" font-size="14.00"> &#160;&#160;&#160;getTokens(_client: address): uint</text>
<text text-anchor="start" x="21.71" y="-25.5" font-family="Times,serif" font-size="14.00"> &#160;&#160;&#160;transfer(_client: address, _recipient: address, _amount: uint256): bool</text>
<text text-anchor="start" x="21.71" y="-8.7" font-family="Times,serif" font-size="14.00"> &#160;&#160;&#160;addTokens(_recipient: address, _amount: uint256): bool</text>
</g>
<!-- 3&#45;&gt;1 -->
<g id="edge6" class="edge">
<title>3&#45;&gt;1</title>
<path fill="none" stroke="black" d="M178.01,-428.1C174.26,-437.42 170.62,-446.45 167.17,-455.03"/>
<polygon fill="black" stroke="black" points="163.83,-453.94 163.35,-464.52 170.33,-456.55 163.83,-453.94"/>
</g>
<!-- 3&#45;&gt;2 -->
<g id="edge7" class="edge">
<title>3&#45;&gt;2</title>
<path fill="none" stroke="black" stroke-dasharray="5,2" d="M46.23,-427.74C39.6,-439.6 33.72,-451.77 28.78,-464.2 6.69,-519.8 9.94,-542.02 28.78,-598.8 31.92,-608.28 36.44,-617.58 41.68,-626.42"/>
<polygon fill="black" stroke="black" points="38.86,-628.5 47.15,-635.1 44.78,-624.77 38.86,-628.5"/>
</g>
<!-- 3&#45;&gt;0 -->
<g id="edge5" class="edge">
<title>3&#45;&gt;0</title>
<path fill="none" stroke="black" stroke-dasharray="5,2" d="M253.72,-427.73C250.96,-483.4 247.87,-543.36 244.78,-598.8 241.87,-650.94 238.41,-708.05 235.24,-758.69"/>
<polygon fill="none" stroke="black" points="224.74,-758.28 233.34,-788.89 245.7,-759.61 224.74,-758.28"/>
</g>
</g>
</svg>
