<?xml version="1.0" encoding="UTF-8" standalone="no"?>
<!DOCTYPE svg PUBLIC "-//W3C//DTD SVG 1.1//EN"
 "http://www.w3.org/Graphics/SVG/1.1/DTD/svg11.dtd">
<!-- Generated by graphviz version 5.0.0 (20220707.1540)
 -->
<!-- Title: UmlClassDiagram Pages: 1 -->
<svg width="435pt" height="677pt"
 viewBox="0.00 0.00 435.20 676.60" xmlns="http://www.w3.org/2000/svg" xmlns:xlink="http://www.w3.org/1999/xlink">
<g id="graph0" class="graph" transform="scale(1 1) rotate(0) translate(4 672.6)">
<title>UmlClassDiagram</title>
<polygon fill="white" stroke="transparent" points="-4,4 -4,-672.6 431.2,-672.6 431.2,4 -4,4"/>
<!-- 1 -->
<g id="node1" class="node">
<title>1</title>
<polygon fill="#f2f2f2" stroke="black" points="0,-330.3 0,-430.3 197.56,-430.3 197.56,-330.3 0,-330.3"/>
<text text-anchor="middle" x="98.78" y="-413.7" font-family="Times,serif" font-size="14.00">&lt;&lt;Struct&gt;&gt;</text>
<text text-anchor="middle" x="98.78" y="-396.9" font-family="Times,serif" font-size="14.00">ClientRecord</text>
<text text-anchor="middle" x="98.78" y="-380.1" font-family="Times,serif" font-size="14.00">ITokenManagementContract.sol</text>
<polyline fill="none" stroke="black" points="0,-371.9 197.56,-371.9 "/>
<text text-anchor="start" x="8" y="-355.3" font-family="Times,serif" font-size="14.00">tokensPurchasedCount: uint</text>
<text text-anchor="start" x="8" y="-338.5" font-family="Times,serif" font-size="14.00">tokensAvailables: uint</text>
</g>
<!-- 0 -->
<g id="node2" class="node">
<title>0</title>
<polygon fill="#f2f2f2" stroke="black" points="24.36,-467.3 24.36,-668.1 427.2,-668.1 427.2,-467.3 24.36,-467.3"/>
<text text-anchor="middle" x="225.78" y="-651.5" font-family="Times,serif" font-size="14.00">&lt;&lt;Interface&gt;&gt;</text>
<text text-anchor="middle" x="225.78" y="-634.7" font-family="Times,serif" font-size="14.00">ITokenManagementContract</text>
<text text-anchor="middle" x="225.78" y="-617.9" font-family="Times,serif" font-size="14.00">ITokenManagementContract.sol</text>
<polyline fill="none" stroke="black" points="24.36,-609.7 427.2,-609.7 "/>
<text text-anchor="start" x="32.36" y="-593.1" font-family="Times,serif" font-size="14.00">External:</text>
<text text-anchor="start" x="32.36" y="-576.3" font-family="Times,serif" font-size="14.00"> &#160;&#160;&#160;&#160;getTokenPriceInWeis(_tokenCount: uint): uint</text>
<text text-anchor="start" x="32.36" y="-559.5" font-family="Times,serif" font-size="14.00"> &#160;&#160;&#160;&#160;buyTokens(_tokenCount: uint)</text>
<text text-anchor="start" x="32.36" y="-542.7" font-family="Times,serif" font-size="14.00"> &#160;&#160;&#160;&#160;balanceOf(): uint</text>
<text text-anchor="start" x="32.36" y="-525.9" font-family="Times,serif" font-size="14.00"> &#160;&#160;&#160;&#160;getMyTokens(): uint</text>
<text text-anchor="start" x="32.36" y="-509.1" font-family="Times,serif" font-size="14.00"> &#160;&#160;&#160;&#160;getTokens(client: address): uint</text>
<text text-anchor="start" x="32.36" y="-492.3" font-family="Times,serif" font-size="14.00"> &#160;&#160;&#160;&#160;generateTokens(_tokenCount: uint)</text>
<text text-anchor="start" x="32.36" y="-475.5" font-family="Times,serif" font-size="14.00"> &#160;&#160;&#160;&#160;transfer(client: address, recipient: address, amount: uint256): bool</text>
</g>
<!-- 1&#45;&gt;0 -->
<g id="edge1" class="edge">
<title>1&#45;&gt;0</title>
<path fill="none" stroke="black" d="M132.48,-430.5C138.2,-438.85 144.34,-447.81 150.63,-457"/>
<polygon fill="black" stroke="black" points="150.73,-457.14 157.42,-459.83 157.51,-467.04 150.82,-464.35 150.73,-457.14"/>
</g>
<!-- 2 -->
<g id="node3" class="node">
<title>2</title>
<polygon fill="#f2f2f2" stroke="black" points="26.11,-0.5 26.11,-293.3 425.45,-293.3 425.45,-0.5 26.11,-0.5"/>
<text text-anchor="middle" x="225.78" y="-276.7" font-family="Times,serif" font-size="14.00">TokenManagementContract</text>
<text text-anchor="middle" x="225.78" y="-259.9" font-family="Times,serif" font-size="14.00">TokenManagementContract.sol</text>
<polyline fill="none" stroke="black" points="26.11,-251.7 425.45,-251.7 "/>
<text text-anchor="start" x="34.11" y="-235.1" font-family="Times,serif" font-size="14.00">Private:</text>
<text text-anchor="start" x="34.11" y="-218.3" font-family="Times,serif" font-size="14.00"> &#160;&#160;token: ERC20Basic</text>
<text text-anchor="start" x="34.11" y="-201.5" font-family="Times,serif" font-size="14.00">Public:</text>
<text text-anchor="start" x="34.11" y="-184.7" font-family="Times,serif" font-size="14.00"> &#160;&#160;clients: mapping(address=&gt;ClientRecord)</text>
<polyline fill="none" stroke="black" points="26.11,-176.5 425.45,-176.5 "/>
<text text-anchor="start" x="34.11" y="-159.9" font-family="Times,serif" font-size="14.00">External:</text>
<text text-anchor="start" x="34.11" y="-143.1" font-family="Times,serif" font-size="14.00"> &#160;&#160;&#160;generateTokens(_tokenCount: uint)</text>
<text text-anchor="start" x="34.11" y="-126.3" font-family="Times,serif" font-size="14.00">Public:</text>
<text text-anchor="start" x="34.11" y="-109.5" font-family="Times,serif" font-size="14.00"> &#160;&#160;&#160;&lt;&lt;payable&gt;&gt; buyTokens(_tokenCount: uint)</text>
<text text-anchor="start" x="34.11" y="-92.7" font-family="Times,serif" font-size="14.00"> &#160;&#160;&#160;constructor()</text>
<text text-anchor="start" x="34.11" y="-75.9" font-family="Times,serif" font-size="14.00"> &#160;&#160;&#160;getTokenPriceInWeis(_tokenCount: uint): uint</text>
<text text-anchor="start" x="34.11" y="-59.1" font-family="Times,serif" font-size="14.00"> &#160;&#160;&#160;balanceOf(): uint</text>
<text text-anchor="start" x="34.11" y="-42.3" font-family="Times,serif" font-size="14.00"> &#160;&#160;&#160;getMyTokens(): uint</text>
<text text-anchor="start" x="34.11" y="-25.5" font-family="Times,serif" font-size="14.00"> &#160;&#160;&#160;getTokens(client: address): uint</text>
<text text-anchor="start" x="34.11" y="-8.7" font-family="Times,serif" font-size="14.00"> &#160;&#160;&#160;transfer(client: address, recipient: address, amount: uint256): bool</text>
</g>
<!-- 2&#45;&gt;1 -->
<g id="edge3" class="edge">
<title>2&#45;&gt;1</title>
<path fill="none" stroke="black" d="M145.89,-293.46C140.58,-303.14 135.43,-312.52 130.61,-321.3"/>
<polygon fill="black" stroke="black" points="127.46,-319.77 125.72,-330.22 133.6,-323.13 127.46,-319.77"/>
</g>
<!-- 2&#45;&gt;0 -->
<g id="edge2" class="edge">
<title>2&#45;&gt;0</title>
<path fill="none" stroke="black" stroke-dasharray="5,2" d="M225.78,-293.49C225.78,-340.23 225.78,-391.66 225.78,-437.17"/>
<polygon fill="none" stroke="black" points="215.28,-437.22 225.78,-467.22 236.28,-437.22 215.28,-437.22"/>
</g>
</g>
</svg>
