<?xml version="1.0" encoding="UTF-8" standalone="no"?>
<!DOCTYPE svg PUBLIC "-//W3C//DTD SVG 1.1//EN"
 "http://www.w3.org/Graphics/SVG/1.1/DTD/svg11.dtd">
<!-- Generated by graphviz version 5.0.0 (20220707.1540)
 -->
<!-- Title: UmlClassDiagram Pages: 1 -->
<svg width="522pt" height="965pt"
 viewBox="0.00 0.00 521.84 964.80" xmlns="http://www.w3.org/2000/svg" xmlns:xlink="http://www.w3.org/1999/xlink">
<g id="graph0" class="graph" transform="scale(1 1) rotate(0) translate(4 960.8)">
<title>UmlClassDiagram</title>
<polygon fill="white" stroke="transparent" points="-4,4 -4,-960.8 517.84,-960.8 517.84,4 -4,4"/>
<!-- 1 -->
<g id="node1" class="node">
<title>1</title>
<polygon fill="#f2f2f2" stroke="black" points="38,-431.1 38,-547.9 235.56,-547.9 235.56,-431.1 38,-431.1"/>
<text text-anchor="middle" x="136.78" y="-531.3" font-family="Times,serif" font-size="14.00">&lt;&lt;Struct&gt;&gt;</text>
<text text-anchor="middle" x="136.78" y="-514.5" font-family="Times,serif" font-size="14.00">ClientRecord</text>
<text text-anchor="middle" x="136.78" y="-497.7" font-family="Times,serif" font-size="14.00">ITokenManagementContract.sol</text>
<polyline fill="none" stroke="black" points="38,-489.5 235.56,-489.5 "/>
<text text-anchor="start" x="46" y="-472.9" font-family="Times,serif" font-size="14.00">tokensPurchasedCount: uint</text>
<text text-anchor="start" x="46" y="-456.1" font-family="Times,serif" font-size="14.00">tokensAvailables: uint</text>
<text text-anchor="start" x="46" y="-439.3" font-family="Times,serif" font-size="14.00">clientType: ClientType</text>
</g>
<!-- 2 -->
<g id="node2" class="node">
<title>2</title>
<polygon fill="#f2f2f2" stroke="black" points="0,-584.9 0,-701.7 197.56,-701.7 197.56,-584.9 0,-584.9"/>
<text text-anchor="middle" x="98.78" y="-685.1" font-family="Times,serif" font-size="14.00">&lt;&lt;Enum&gt;&gt;</text>
<text text-anchor="middle" x="98.78" y="-668.3" font-family="Times,serif" font-size="14.00">ClientType</text>
<text text-anchor="middle" x="98.78" y="-651.5" font-family="Times,serif" font-size="14.00">ITokenManagementContract.sol</text>
<polyline fill="none" stroke="black" points="0,-643.3 197.56,-643.3 "/>
<text text-anchor="start" x="8" y="-626.7" font-family="Times,serif" font-size="14.00">CA: 0</text>
<text text-anchor="start" x="8" y="-609.9" font-family="Times,serif" font-size="14.00">STUDENT: 1</text>
<text text-anchor="start" x="8" y="-593.1" font-family="Times,serif" font-size="14.00">ADMIN: 2</text>
</g>
<!-- 1&#45;&gt;2 -->
<g id="edge1" class="edge">
<title>1&#45;&gt;2</title>
<path fill="none" stroke="black" stroke-dasharray="5,2" d="M122.3,-548.32C120.12,-557.03 117.86,-566.07 115.64,-574.95"/>
<polygon fill="black" stroke="black" points="112.18,-574.34 113.15,-584.89 118.97,-576.04 112.18,-574.34"/>
</g>
<!-- 0 -->
<g id="node3" class="node">
<title>0</title>
<polygon fill="#f2f2f2" stroke="black" points="16.97,-738.7 16.97,-956.3 434.59,-956.3 434.59,-738.7 16.97,-738.7"/>
<text text-anchor="middle" x="225.78" y="-939.7" font-family="Times,serif" font-size="14.00">&lt;&lt;Interface&gt;&gt;</text>
<text text-anchor="middle" x="225.78" y="-922.9" font-family="Times,serif" font-size="14.00">ITokenManagementContract</text>
<text text-anchor="middle" x="225.78" y="-906.1" font-family="Times,serif" font-size="14.00">ITokenManagementContract.sol</text>
<polyline fill="none" stroke="black" points="16.97,-897.9 434.59,-897.9 "/>
<text text-anchor="start" x="24.97" y="-881.3" font-family="Times,serif" font-size="14.00">External:</text>
<text text-anchor="start" x="24.97" y="-864.5" font-family="Times,serif" font-size="14.00"> &#160;&#160;&#160;&#160;sendInitialTokenFundsTo(account: address, clientType: ClientType)</text>
<text text-anchor="start" x="24.97" y="-847.7" font-family="Times,serif" font-size="14.00"> &#160;&#160;&#160;&#160;getTokenPriceInWei(_tokenCount: uint): uint</text>
<text text-anchor="start" x="24.97" y="-830.9" font-family="Times,serif" font-size="14.00"> &#160;&#160;&#160;&#160;buyTokens(_tokenCount: uint)</text>
<text text-anchor="start" x="24.97" y="-814.1" font-family="Times,serif" font-size="14.00"> &#160;&#160;&#160;&#160;balanceOf(): uint</text>
<text text-anchor="start" x="24.97" y="-797.3" font-family="Times,serif" font-size="14.00"> &#160;&#160;&#160;&#160;getMyTokens(): uint</text>
<text text-anchor="start" x="24.97" y="-780.5" font-family="Times,serif" font-size="14.00"> &#160;&#160;&#160;&#160;getTokens(client: address): uint</text>
<text text-anchor="start" x="24.97" y="-763.7" font-family="Times,serif" font-size="14.00"> &#160;&#160;&#160;&#160;generateTokens(_tokenCount: uint)</text>
<text text-anchor="start" x="24.97" y="-746.9" font-family="Times,serif" font-size="14.00"> &#160;&#160;&#160;&#160;transfer(client: address, recipient: address, amount: uint256): bool</text>
</g>
<!-- 1&#45;&gt;0 -->
<g id="edge3" class="edge">
<title>1&#45;&gt;0</title>
<path fill="none" stroke="black" d="M187.48,-548.11C195.17,-559.49 202.09,-571.82 206.78,-584.4 223.37,-628.95 229.6,-680.65 231.16,-726.3"/>
<polygon fill="black" stroke="black" points="231.16,-726.39 235.31,-732.28 231.47,-738.38 227.32,-732.49 231.16,-726.39"/>
</g>
<!-- 2&#45;&gt;0 -->
<g id="edge2" class="edge">
<title>2&#45;&gt;0</title>
<path fill="none" stroke="black" d="M128.68,-701.7C133.71,-710.1 139.13,-719 144.74,-728.09"/>
<polygon fill="black" stroke="black" points="144.82,-728.22 151.39,-731.2 151.15,-738.41 144.59,-735.42 144.82,-728.22"/>
</g>
<!-- 0&#45;&gt;2 -->
<g id="edge4" class="edge">
<title>0&#45;&gt;2</title>
<path fill="none" stroke="black" stroke-dasharray="5,2" d="M164.62,-738.41C158.56,-728.83 152.48,-719.32 146.58,-710.25"/>
<polygon fill="black" stroke="black" points="149.39,-708.16 140.99,-701.7 143.53,-711.99 149.39,-708.16"/>
</g>
<!-- 3 -->
<g id="node4" class="node">
<title>3</title>
<polygon fill="#f2f2f2" stroke="black" points="13.71,-0.5 13.71,-394.1 513.84,-394.1 513.84,-0.5 13.71,-0.5"/>
<text text-anchor="middle" x="263.78" y="-377.5" font-family="Times,serif" font-size="14.00">TokenManagementContract</text>
<text text-anchor="middle" x="263.78" y="-360.7" font-family="Times,serif" font-size="14.00">TokenManagementContract.sol</text>
<polyline fill="none" stroke="black" points="13.71,-352.5 513.84,-352.5 "/>
<text text-anchor="start" x="21.71" y="-335.9" font-family="Times,serif" font-size="14.00">Private:</text>
<text text-anchor="start" x="21.71" y="-319.1" font-family="Times,serif" font-size="14.00"> &#160;&#160;token: ERC20Basic</text>
<text text-anchor="start" x="21.71" y="-302.3" font-family="Times,serif" font-size="14.00"> &#160;&#160;accountsAlreadyProvidedWithInitialFunds: mapping(address=&gt;bool)</text>
<text text-anchor="start" x="21.71" y="-285.5" font-family="Times,serif" font-size="14.00">Public:</text>
<text text-anchor="start" x="21.71" y="-268.7" font-family="Times,serif" font-size="14.00"> &#160;&#160;DEFAULT_ADMIN_TOKENS: uint</text>
<text text-anchor="start" x="21.71" y="-251.9" font-family="Times,serif" font-size="14.00"> &#160;&#160;DEFAULT_CA_TOKENS: uint</text>
<text text-anchor="start" x="21.71" y="-235.1" font-family="Times,serif" font-size="14.00"> &#160;&#160;DEFAULT_STUDENTS_TOKENS: uint</text>
<text text-anchor="start" x="21.71" y="-218.3" font-family="Times,serif" font-size="14.00"> &#160;&#160;clients: mapping(address=&gt;ClientRecord)</text>
<polyline fill="none" stroke="black" points="13.71,-210.1 513.84,-210.1 "/>
<text text-anchor="start" x="21.71" y="-193.5" font-family="Times,serif" font-size="14.00">External:</text>
<text text-anchor="start" x="21.71" y="-176.7" font-family="Times,serif" font-size="14.00"> &#160;&#160;&#160;generateTokens(_tokenCount: uint)</text>
<text text-anchor="start" x="21.71" y="-159.9" font-family="Times,serif" font-size="14.00">Public:</text>
<text text-anchor="start" x="21.71" y="-143.1" font-family="Times,serif" font-size="14.00"> &#160;&#160;&#160;&lt;&lt;payable&gt;&gt; buyTokens(_tokenCount: uint)</text>
<text text-anchor="start" x="21.71" y="-126.3" font-family="Times,serif" font-size="14.00"> &#160;&#160;&#160;&lt;&lt;modifier&gt;&gt; accountHasNotAlreadyProvidedWithInitialFunds(_account: address)</text>
<text text-anchor="start" x="21.71" y="-109.5" font-family="Times,serif" font-size="14.00"> &#160;&#160;&#160;constructor()</text>
<text text-anchor="start" x="21.71" y="-92.7" font-family="Times,serif" font-size="14.00"> &#160;&#160;&#160;sendInitialTokenFundsTo(account: address, clientType: ClientType)</text>
<text text-anchor="start" x="21.71" y="-75.9" font-family="Times,serif" font-size="14.00"> &#160;&#160;&#160;getTokenPriceInWei(_tokenCount: uint): uint</text>
<text text-anchor="start" x="21.71" y="-59.1" font-family="Times,serif" font-size="14.00"> &#160;&#160;&#160;balanceOf(): uint</text>
<text text-anchor="start" x="21.71" y="-42.3" font-family="Times,serif" font-size="14.00"> &#160;&#160;&#160;getMyTokens(): uint</text>
<text text-anchor="start" x="21.71" y="-25.5" font-family="Times,serif" font-size="14.00"> &#160;&#160;&#160;getTokens(client: address): uint</text>
<text text-anchor="start" x="21.71" y="-8.7" font-family="Times,serif" font-size="14.00"> &#160;&#160;&#160;transfer(client: address, recipient: address, amount: uint256): bool</text>
</g>
<!-- 3&#45;&gt;1 -->
<g id="edge6" class="edge">
<title>3&#45;&gt;1</title>
<path fill="none" stroke="black" d="M178.01,-394.28C173.82,-403.85 169.78,-413.08 165.98,-421.78"/>
<polygon fill="black" stroke="black" points="162.75,-420.43 161.94,-430.99 169.16,-423.23 162.75,-420.43"/>
</g>
<!-- 3&#45;&gt;2 -->
<g id="edge7" class="edge">
<title>3&#45;&gt;2</title>
<path fill="none" stroke="black" stroke-dasharray="5,2" d="M47.21,-394.3C40.19,-406.05 33.97,-418.16 28.78,-430.6 8.6,-478.91 12.29,-498.71 28.78,-548.4 31.92,-557.88 36.44,-567.18 41.68,-576.02"/>
<polygon fill="black" stroke="black" points="38.86,-578.1 47.15,-584.7 44.78,-574.37 38.86,-578.1"/>
</g>
<!-- 3&#45;&gt;0 -->
<g id="edge5" class="edge">
<title>3&#45;&gt;0</title>
<path fill="none" stroke="black" stroke-dasharray="5,2" d="M253.48,-394.14C250.74,-444.42 247.73,-498.42 244.78,-548.4 241.69,-600.72 238.08,-658.19 234.84,-708.58"/>
<polygon fill="none" stroke="black" points="224.36,-707.93 232.9,-738.54 245.32,-709.28 224.36,-707.93"/>
</g>
</g>
</svg>
